<svg xmlns="http://www.w3.org/2000/svg" width="157.553" height="49.125" viewBox="0 0 157.553 49.125">
  <g id="Logo" transform="translate(-62.447 -61)">
    <g id="STARTON_LOGO" data-name="STARTON LOGO" transform="translate(53.247 58.463)">
      <path id="Tracé_5" data-name="Tracé 5" d="M27.663,3.571,13.1,11.994a7.742,7.742,0,0,0-3.9,6.714V35.65a7.772,7.772,0,0,0,3.959,6.777l14.567,8.234a7.879,7.879,0,0,0,7.632.032l14.757-8.265a7.764,7.764,0,0,0,3.99-6.777V18.74a7.719,7.719,0,0,0-3.927-6.745L35.421,3.571A7.8,7.8,0,0,0,27.663,3.571Z" transform="translate(0 0)" fill="#2d3748"/>
      <path id="Tracé_6" data-name="Tracé 6" d="M30.107,7.073l-13.9,8.044a7.4,7.4,0,0,0-3.705,6.4V37.664a7.425,7.425,0,0,0,3.769,6.46l13.9,7.854a7.537,7.537,0,0,0,7.284.032l14.061-7.885a7.417,7.417,0,0,0,3.8-6.46V21.545a7.372,7.372,0,0,0-3.737-6.429L37.486,7.073A7.4,7.4,0,0,0,30.107,7.073Z" transform="translate(-2.255 -2.426)" fill="#fff"/>
      <g id="Groupe_1" data-name="Groupe 1" transform="translate(23.134 16.206)">
        <path id="Tracé_7" data-name="Tracé 7" d="M56.937,67.551a10.082,10.082,0,0,1-3.737-1.9l1.425-3.167a11.163,11.163,0,0,0,3.293,1.742,12.176,12.176,0,0,0,3.927.665,6.614,6.614,0,0,0,3.642-.792,2.365,2.365,0,0,0,1.2-2.058,2.012,2.012,0,0,0-.665-1.552,4.456,4.456,0,0,0-1.71-.95c-.7-.222-1.615-.475-2.818-.792a31.122,31.122,0,0,1-4.054-1.2,6.567,6.567,0,0,1-2.66-1.868,5.1,5.1,0,0,1-1.108-3.42,5.75,5.75,0,0,1,.982-3.293,6.9,6.9,0,0,1,2.977-2.375A12.311,12.311,0,0,1,62.51,45.7a15.253,15.253,0,0,1,3.959.507,11.21,11.21,0,0,1,3.357,1.457l-1.3,3.167a13.293,13.293,0,0,0-3.008-1.3,11.573,11.573,0,0,0-3.04-.443,6.281,6.281,0,0,0-3.578.823,2.485,2.485,0,0,0-1.172,2.153,2.012,2.012,0,0,0,.665,1.552,4.914,4.914,0,0,0,1.71.95c.7.222,1.615.507,2.818.792a30.561,30.561,0,0,1,4.022,1.172A7.241,7.241,0,0,1,69.636,58.4a4.959,4.959,0,0,1,1.108,3.388,5.75,5.75,0,0,1-.982,3.293,6.559,6.559,0,0,1-3.008,2.343,12.423,12.423,0,0,1-4.877.887A18.289,18.289,0,0,1,56.937,67.551Z" transform="translate(-53.2 -45.7)" fill="#2d3748"/>
      </g>
    </g>
    <text id="STARTON" transform="translate(120 93)" fill="#2b374a" font-size="20" font-family="Montserrat-Bold, Montserrat" font-weight="700"><tspan x="0" y="0">STARTON</tspan></text>
  </g>
</svg>
