<svg xmlns="http://www.w3.org/2000/svg" width="50" height="50" viewBox="0 0 50 50">
  <g id="AccountButton" transform="translate(-1725 -30)">
    <circle id="Button-Container" cx="25" cy="25" r="25" transform="translate(1725 30)" fill="none"/>
    <g id="User-Icon" transform="translate(1734 39)">
      <path id="Tracé_1" d="M16,2A14,14,0,1,0,30,16,14,14,0,0,0,16,2ZM10,26.38v-2A3.22,3.22,0,0,1,13,21h6a3.22,3.22,0,0,1,3,3.39v2a11.92,11.92,0,0,1-12,0Zm14-1.46v-.61A5.21,5.21,0,0,0,19,19H13a5.2,5.2,0,0,0-5,5.31H8v.59a12,12,0,1,1,16,0Z" fill="#2b374a"/>
      <path id="Tracé_2" d="M16,7a5,5,0,1,0,5,5A5,5,0,0,0,16,7Zm0,8a3,3,0,1,1,3-3A3,3,0,0,1,16,15Z" fill="#2b374a"/>
      <path id="_Transparent_Rectangle_" d="M0,0H32V32H0Z" fill="none"/>
    </g>
  </g>
</svg>
