<svg xmlns="http://www.w3.org/2000/svg" width="50" height="50" viewBox="0 0 50 50">
  <g id="WalletButton" transform="translate(-1725 -30)">
    <circle id="Button-Container" cx="25" cy="25" r="25" transform="translate(1725 30)" fill="none"/>
    <path id="Tracé_18" d="M23.42,36.875H4.063a.813.813,0,0,1,0-1.625h19.5a.812.812,0,0,0,.813-.812A2.437,2.437,0,0,0,21.938,32H3.25A3.25,3.25,0,0,0,0,35.25V51.5a3.25,3.25,0,0,0,3.25,3.25H23.42A2.514,2.514,0,0,0,26,52.313v-13A2.514,2.514,0,0,0,23.42,36.875Zm-2.3,10.563a1.625,1.625,0,1,1,1.625-1.625A1.625,1.625,0,0,1,21.125,47.438Z" transform="translate(1737 11.625)" fill="#2b374a"/>
  </g>
</svg>
